<svg width="48" height="48" viewBox="0 0 48 48" fill="none" xmlns="http://www.w3.org/2000/svg">
<g clip-path="url(#clip0_2897_18759)">
<rect x="0.5" y="0.5" width="47" height="47" rx="7.5" fill="#1A1A1A" stroke="#313131"/>
<g filter="url(#filter0_di_2897_18759)">
<path fill-rule="evenodd" clip-rule="evenodd" d="M22.2273 11.8781C21.3765 11.827 20.5699 12.261 20.1437 12.999L16.4569 19.3839L25.2466 19.4824C26.0324 19.4912 26.7567 19.9093 27.1572 20.5853L31.6374 28.147L35.3242 21.7622C35.7504 21.0241 35.723 20.1087 35.2534 19.3975L31.2403 13.3204C30.8501 12.7295 30.2044 12.3568 29.4975 12.3144L22.2273 11.8781ZM12.2942 29.0819C11.8246 28.3707 11.7972 27.4553 12.2234 26.7172L15.9102 20.3324L20.3904 27.8941C20.7909 28.5701 21.5152 28.9882 22.301 28.997L31.0907 29.0955L27.4039 35.4804C26.9777 36.2184 26.1711 36.6524 25.3203 36.6013L18.0501 36.165C17.3432 36.1226 16.6975 35.7499 16.3073 35.159L12.2942 29.0819Z" fill="url(#paint0_linear_2897_18759)"/>
<path fill-rule="evenodd" clip-rule="evenodd" d="M22.2273 11.8781C21.3765 11.827 20.5699 12.261 20.1437 12.999L16.4569 19.3839L25.2466 19.4824C26.0324 19.4912 26.7567 19.9093 27.1572 20.5853L31.6374 28.147L35.3242 21.7622C35.7504 21.0241 35.723 20.1087 35.2534 19.3975L31.2403 13.3204C30.8501 12.7295 30.2044 12.3568 29.4975 12.3144L22.2273 11.8781ZM12.2942 29.0819C11.8246 28.3707 11.7972 27.4553 12.2234 26.7172L15.9102 20.3324L20.3904 27.8941C20.7909 28.5701 21.5152 28.9882 22.301 28.997L31.0907 29.0955L27.4039 35.4804C26.9777 36.2184 26.1711 36.6524 25.3203 36.6013L18.0501 36.165C17.3432 36.1226 16.6975 35.7499 16.3073 35.159L12.2942 29.0819Z" fill="url(#paint1_linear_2897_18759)"/>
</g>
</g>
<defs>
<filter id="filter0_di_2897_18759" x="10.7969" y="11.874" width="25.9531" height="26.9814" filterUnits="userSpaceOnUse" color-interpolation-filters="sRGB">
<feFlood flood-opacity="0" result="BackgroundImageFix"/>
<feColorMatrix in="SourceAlpha" type="matrix" values="0 0 0 0 0 0 0 0 0 0 0 0 0 0 0 0 0 0 127 0" result="hardAlpha"/>
<feOffset dy="1.125"/>
<feGaussianBlur stdDeviation="0.5625"/>
<feComposite in2="hardAlpha" operator="out"/>
<feColorMatrix type="matrix" values="0 0 0 0 0 0 0 0 0 0 0 0 0 0 0 0 0 0 0.05 0"/>
<feBlend mode="normal" in2="BackgroundImageFix" result="effect1_dropShadow_2897_18759"/>
<feBlend mode="normal" in="SourceGraphic" in2="effect1_dropShadow_2897_18759" result="shape"/>
<feColorMatrix in="SourceAlpha" type="matrix" values="0 0 0 0 0 0 0 0 0 0 0 0 0 0 0 0 0 0 127 0" result="hardAlpha"/>
<feOffset dy="1.125"/>
<feGaussianBlur stdDeviation="0.5625"/>
<feComposite in2="hardAlpha" operator="arithmetic" k2="-1" k3="1"/>
<feColorMatrix type="matrix" values="0 0 0 0 0 0 0 0 0 0 0 0 0 0 0 0 0 0 0.05 0"/>
<feBlend mode="normal" in2="shape" result="effect2_innerShadow_2897_18759"/>
</filter>
<linearGradient id="paint0_linear_2897_18759" x1="23.7738" y1="11.874" x2="27.0338" y2="37.4371" gradientUnits="userSpaceOnUse">
<stop stop-color="white"/>
<stop offset="1" stop-color="white" stop-opacity="0.8"/>
</linearGradient>
<linearGradient id="paint1_linear_2897_18759" x1="23.7738" y1="36.6054" x2="23.7738" y2="11.874" gradientUnits="userSpaceOnUse">
<stop stop-color="#2FB9D6"/>
<stop offset="1" stop-color="#17CA95"/>
</linearGradient>
<clipPath id="clip0_2897_18759">
<rect width="48" height="48" fill="white"/>
</clipPath>
</defs>
</svg>
