<svg width="28" height="28" viewBox="0 0 28 28" fill="none" xmlns="http://www.w3.org/2000/svg">
<path d="M14.0002 2.33301C7.56016 2.33301 2.3335 7.55967 2.3335 13.9997C2.3335 20.4397 7.56016 25.6663 14.0002 25.6663C20.4402 25.6663 25.6668 20.4397 25.6668 13.9997C25.6668 7.55967 20.4402 2.33301 14.0002 2.33301ZM22.7035 10.6397L19.4602 11.9813C18.8652 10.3947 17.6168 9.13467 16.0185 8.55134L17.3602 5.30801C19.8102 6.24134 21.7585 8.18967 22.7035 10.6397ZM14.0002 17.4997C12.0635 17.4997 10.5002 15.9363 10.5002 13.9997C10.5002 12.063 12.0635 10.4997 14.0002 10.4997C15.9368 10.4997 17.5002 12.063 17.5002 13.9997C17.5002 15.9363 15.9368 17.4997 14.0002 17.4997ZM10.6518 5.29634L12.0168 8.53967C10.4068 9.12301 9.13516 10.3947 8.54016 12.0047L5.29683 10.6513C6.24183 8.18967 8.19016 6.24134 10.6518 5.29634ZM5.29683 17.348L8.54016 16.0063C9.13516 17.6163 10.3952 18.8763 12.0052 19.4597L10.6402 22.703C8.19016 21.758 6.24183 19.8097 5.29683 17.348ZM17.3602 22.703L16.0185 19.4597C17.6168 18.8647 18.8768 17.6047 19.4602 15.9947L22.7035 17.3597C21.7585 19.8097 19.8102 21.758 17.3602 22.703Z" fill="#969696"/>
</svg>
