<svg width="28" height="28" viewBox="0 0 28 28" fill="none" xmlns="http://www.w3.org/2000/svg">
<path fill-rule="evenodd" clip-rule="evenodd" d="M14.6998 21.0704C14.2798 21.3971 13.6848 21.3971 13.2648 21.0704L6.0898 15.4938C5.6698 15.1671 5.08646 15.1671 4.66646 15.4938C4.07146 15.9604 4.07146 16.8588 4.66646 17.3254L12.5531 23.4621C13.3931 24.1154 14.5715 24.1154 15.4231 23.4621L23.3098 17.3254C23.9048 16.8588 23.9048 15.9604 23.3098 15.4938L23.2981 15.4821C22.8781 15.1554 22.2948 15.1554 21.8748 15.4821L14.6998 21.0704ZM15.4348 17.5471L23.3215 11.4104C23.9165 10.9438 23.9165 10.0338 23.3215 9.5671L15.4348 3.43043C14.5948 2.7771 13.4165 2.7771 12.5648 3.43043L4.67813 9.57876C4.08313 10.0454 4.08313 10.9554 4.67813 11.4221L12.5648 17.5588C13.4048 18.2121 14.5948 18.2121 15.4348 17.5471Z" fill="#969696"/>
</svg>
