<svg width="28" height="28" viewBox="0 0 28 28" fill="none" xmlns="http://www.w3.org/2000/svg">
<path fill-rule="evenodd" clip-rule="evenodd" d="M22.6681 15.143C22.7148 14.7697 22.7498 14.3963 22.7498 13.9997C22.7498 13.603 22.7148 13.2297 22.6681 12.8563L25.1298 10.9313C25.3515 10.7563 25.4098 10.4413 25.2698 10.1847L22.9365 6.14801C22.7965 5.89134 22.4815 5.79801 22.2248 5.89134L19.3198 7.05801C18.7131 6.59134 18.0598 6.20634 17.3481 5.91467L16.9048 2.82301C16.8698 2.54301 16.6248 2.33301 16.3331 2.33301H11.6665C11.3748 2.33301 11.1298 2.54301 11.0948 2.82301L10.6515 5.91467C9.93981 6.20634 9.28648 6.60301 8.67981 7.05801L5.77481 5.89134C5.50648 5.78634 5.20315 5.89134 5.06315 6.14801L2.72981 10.1847C2.57815 10.4413 2.64815 10.7563 2.86981 10.9313L5.33148 12.8563C5.28481 13.2297 5.24981 13.6147 5.24981 13.9997C5.24981 14.3847 5.28481 14.7697 5.33148 15.143L2.86981 17.068C2.64815 17.243 2.58981 17.558 2.72981 17.8147L5.06315 21.8513C5.20315 22.108 5.51815 22.2013 5.77481 22.108L8.67981 20.9413C9.28648 21.408 9.93981 21.793 10.6515 22.0847L11.0948 25.1763C11.1298 25.4563 11.3748 25.6663 11.6665 25.6663H16.3331C16.6248 25.6663 16.8698 25.4563 16.9048 25.1763L17.3481 22.0847C18.0598 21.793 18.7131 21.3963 19.3198 20.9413L22.2248 22.108C22.4931 22.213 22.7965 22.108 22.9365 21.8513L25.2698 17.8147C25.4098 17.558 25.3515 17.243 25.1298 17.068L22.6681 15.143ZM13.9998 18.083C11.7481 18.083 9.91648 16.2513 9.91648 13.9997C9.91648 11.748 11.7481 9.91634 13.9998 9.91634C16.2515 9.91634 18.0831 11.748 18.0831 13.9997C18.0831 16.2513 16.2515 18.083 13.9998 18.083Z" fill="#969696"/>
</svg>
